<svg xmlns="http://www.w3.org/2000/svg" version="1.1" xmlns:xlink="http://www.w3.org/1999/xlink" xmlns:svgjs="http://svgjs.com/svgjs" width="1440" height="560" preserveAspectRatio="none" viewBox="0 0 1440 560"><g mask="url(&quot;#SvgjsMask1547&quot;)" fill="none"><rect width="1440" height="560" x="0" y="0" fill="rgba(233, 234, 235, 1)"></rect><use xlink:href="#SvgjsG1552" transform="translate(0, 0)" fill="rgba(68, 81, 227, 1)"></use><use xlink:href="#SvgjsG1552" transform="translate(0, 480)" fill="#0f457b"></use><use xlink:href="#SvgjsG1552" transform="translate(480, 0)" fill="rgba(134, 145, 239, 1)"></use><use xlink:href="#SvgjsG1552" transform="translate(480, 480)" fill="#0f457b"></use><use xlink:href="#SvgjsG1552" transform="translate(960, 0)" fill="rgba(134, 145, 239, 1)"></use><use xlink:href="#SvgjsG1552" transform="translate(960, 480)" fill="#0f457b"></use></g><defs><mask id="SvgjsMask1547"><rect width="1440" height="560" fill="#ffffff"></rect></mask><g id="SvgjsG1549"><path d="M5.37 1.41l2.41 0.65-2.88 10.74-2.41-0.64zM15.25 2.22L17.66 2.86l-2.92 10.88-2.4-0.65z"></path><path d="M5.2 4.72l0.17-3.31L17.8 2.34l-0.82 3.06z"></path><path d="M-1.14 11.19a3.12 2.61 15 1 0 6.04 1.61 3.12 2.61 15 1 0-6.04-1.61"></path><path d="M8.71 12.12a3.12 2.61 15 1 0 6.03 1.62 3.12 2.61 15 1 0-6.03-1.62"></path></g><g id="SvgjsG1550"><path d="M9.56 3.84a1.19 1.19 0 0 0 0.61-2.29 1.19 1.19 0 0 0-0.61 2.29"></path><path d="M10.34 4.33l-1.67-0.45L6.59 0.26A0.6 0.6 0 0 0 5.77 0.02a0.6 0.6 0 0 0-0.25 0.83l2.18 3.77-2.65 9.88a0.66 0.66 0 0 0 1.29 0.35L7.78 9.49l0.52 0.14-1.44 5.36c-0.1 0.36 0.12 0.72 0.48 0.82 0.36 0.1 0.72-0.12 0.81-0.48L10.79 5.45 14.57 3.27a0.6 0.6 0 0 0 0.2-0.83 0.6 0.6 0 0 0-0.83-0.2L10.35 4.32z"></path></g><g id="SvgjsG1551"><path d="M10.25 13.81L2.41 11.71 5.15 1.48l7.84 2.1-2.74 10.23z m-4.32 0.44a0.46 0.46 0 1 1 0.24-0.88 0.46 0.46 0 0 1-0.24 0.88zM8.7 1.24l1.34 0.36c0.19 0.05 0.1 0.39-0.09 0.34l-1.35-0.36c-0.19-0.05-0.1-0.4 0.09-0.34zM13.34 1.57L5.85-0.43C5.53-0.52 5.18-0.25 5.07 0.17L1.68 12.81c-0.11 0.41 0.06 0.82 0.38 0.9l7.49 2.01c0.32 0.09 0.67-0.18 0.79-0.6L13.72 2.48c0.11-0.42-0.06-0.83-0.38-0.91z" fill-rule="evenodd"></path></g><g id="SvgjsG1548"><path d="M12.06 15.01c0.53-0.38 0.86-1.03 0.8-1.73l-0.06-0.64 1.29 0.34L17 2.13 3.04-1.61l-2.91 10.85 7.51 2.01 0.22 2.47a1.92 1.92 0 0 0 1.08 1.57l0.07 1.26 3.23 0.87-0.18-2.41z m0.4-6.17c-0.75 0.07-1.31 0.73-1.25 1.49l0.14 1.48L0.64 8.94 3.33-1.1l13.16 3.53-2.69 10.04-1.04-0.28-0.3-3.35z" fill-rule="evenodd"></path></g><g id="SvgjsG1552"><use xlink:href="#SvgjsG1548" transform="translate(0, 0) scale(1.5)" fill="rgba(134, 145, 239, 1)"></use><use xlink:href="#SvgjsG1549" transform="translate(0, 48) scale(1.5)" fill="#0f457b"></use><use xlink:href="#SvgjsG1548" transform="translate(0, 96) scale(1.5)" fill="rgba(134, 145, 239, 1)"></use><use xlink:href="#SvgjsG1550" transform="translate(0, 144) scale(1.5)" fill="#0f457b"></use><use xlink:href="#SvgjsG1548" transform="translate(0, 192) scale(1.5)" fill="rgba(134, 145, 239, 1)"></use><use xlink:href="#SvgjsG1548" transform="translate(0, 240) scale(1.5)" fill="rgba(68, 81, 227, 1)"></use><use xlink:href="#SvgjsG1549" transform="translate(0, 288) scale(1.5)" fill="rgba(68, 81, 227, 1)"></use><use xlink:href="#SvgjsG1550" transform="translate(0, 336) scale(1.5)" fill="rgba(68, 81, 227, 1)"></use><use xlink:href="#SvgjsG1550" transform="translate(0, 384) scale(1.5)" fill="rgba(68, 81, 227, 1)"></use><use xlink:href="#SvgjsG1550" transform="translate(0, 432) scale(1.5)" fill="rgba(134, 145, 239, 1)"></use><use xlink:href="#SvgjsG1549" transform="translate(48, 0) scale(1.5)" fill="rgba(68, 81, 227, 1)"></use><use xlink:href="#SvgjsG1548" transform="translate(48, 48) scale(1.5)" fill="rgba(134, 145, 239, 1)"></use><use xlink:href="#SvgjsG1550" transform="translate(48, 96) scale(1.5)" fill="#0f457b"></use><use xlink:href="#SvgjsG1548" transform="translate(48, 144) scale(1.5)" fill="#0f457b"></use><use xlink:href="#SvgjsG1551" transform="translate(48, 192) scale(1.5)" fill="rgba(134, 145, 239, 1)"></use><use xlink:href="#SvgjsG1548" transform="translate(48, 240) scale(1.5)" fill="rgba(134, 145, 239, 1)"></use><use xlink:href="#SvgjsG1551" transform="translate(48, 288) scale(1.5)" fill="#0f457b"></use><use xlink:href="#SvgjsG1550" transform="translate(48, 336) scale(1.5)" fill="#0f457b"></use><use xlink:href="#SvgjsG1551" transform="translate(48, 384) scale(1.5)" fill="rgba(68, 81, 227, 1)"></use><use xlink:href="#SvgjsG1549" transform="translate(48, 432) scale(1.5)" fill="rgba(68, 81, 227, 1)"></use><use xlink:href="#SvgjsG1548" transform="translate(96, 0) scale(1.5)" fill="#0f457b"></use><use xlink:href="#SvgjsG1548" transform="translate(96, 48) scale(1.5)" fill="#0f457b"></use><use xlink:href="#SvgjsG1549" transform="translate(96, 96) scale(1.5)" fill="rgba(68, 81, 227, 1)"></use><use xlink:href="#SvgjsG1551" transform="translate(96, 144) scale(1.5)" fill="#0f457b"></use><use xlink:href="#SvgjsG1548" transform="translate(96, 192) scale(1.5)" fill="rgba(68, 81, 227, 1)"></use><use xlink:href="#SvgjsG1548" transform="translate(96, 240) scale(1.5)" fill="rgba(68, 81, 227, 1)"></use><use xlink:href="#SvgjsG1548" transform="translate(96, 288) scale(1.5)" fill="rgba(134, 145, 239, 1)"></use><use xlink:href="#SvgjsG1551" transform="translate(96, 336) scale(1.5)" fill="rgba(134, 145, 239, 1)"></use><use xlink:href="#SvgjsG1551" transform="translate(96, 384) scale(1.5)" fill="rgba(134, 145, 239, 1)"></use><use xlink:href="#SvgjsG1549" transform="translate(96, 432) scale(1.5)" fill="#0f457b"></use><use xlink:href="#SvgjsG1551" transform="translate(144, 0) scale(1.5)" fill="rgba(134, 145, 239, 1)"></use><use xlink:href="#SvgjsG1549" transform="translate(144, 48) scale(1.5)" fill="rgba(68, 81, 227, 1)"></use><use xlink:href="#SvgjsG1551" transform="translate(144, 96) scale(1.5)" fill="rgba(68, 81, 227, 1)"></use><use xlink:href="#SvgjsG1549" transform="translate(144, 144) scale(1.5)" fill="rgba(134, 145, 239, 1)"></use><use xlink:href="#SvgjsG1550" transform="translate(144, 192) scale(1.5)" fill="rgba(134, 145, 239, 1)"></use><use xlink:href="#SvgjsG1549" transform="translate(144, 240) scale(1.5)" fill="rgba(68, 81, 227, 1)"></use><use xlink:href="#SvgjsG1551" transform="translate(144, 288) scale(1.5)" fill="#0f457b"></use><use xlink:href="#SvgjsG1549" transform="translate(144, 336) scale(1.5)" fill="rgba(68, 81, 227, 1)"></use><use xlink:href="#SvgjsG1551" transform="translate(144, 384) scale(1.5)" fill="rgba(134, 145, 239, 1)"></use><use xlink:href="#SvgjsG1550" transform="translate(144, 432) scale(1.5)" fill="rgba(68, 81, 227, 1)"></use><use xlink:href="#SvgjsG1550" transform="translate(192, 0) scale(1.5)" fill="rgba(134, 145, 239, 1)"></use><use xlink:href="#SvgjsG1548" transform="translate(192, 48) scale(1.5)" fill="rgba(134, 145, 239, 1)"></use><use xlink:href="#SvgjsG1549" transform="translate(192, 96) scale(1.5)" fill="#0f457b"></use><use xlink:href="#SvgjsG1550" transform="translate(192, 144) scale(1.5)" fill="rgba(134, 145, 239, 1)"></use><use xlink:href="#SvgjsG1551" transform="translate(192, 192) scale(1.5)" fill="rgba(134, 145, 239, 1)"></use><use xlink:href="#SvgjsG1549" transform="translate(192, 240) scale(1.5)" fill="#0f457b"></use><use xlink:href="#SvgjsG1549" transform="translate(192, 288) scale(1.5)" fill="#0f457b"></use><use xlink:href="#SvgjsG1548" transform="translate(192, 336) scale(1.5)" fill="rgba(134, 145, 239, 1)"></use><use xlink:href="#SvgjsG1549" transform="translate(192, 384) scale(1.5)" fill="rgba(68, 81, 227, 1)"></use><use xlink:href="#SvgjsG1551" transform="translate(192, 432) scale(1.5)" fill="#0f457b"></use><use xlink:href="#SvgjsG1550" transform="translate(240, 0) scale(1.5)" fill="rgba(134, 145, 239, 1)"></use><use xlink:href="#SvgjsG1551" transform="translate(240, 48) scale(1.5)" fill="rgba(68, 81, 227, 1)"></use><use xlink:href="#SvgjsG1549" transform="translate(240, 96) scale(1.5)" fill="#0f457b"></use><use xlink:href="#SvgjsG1549" transform="translate(240, 144) scale(1.5)" fill="#0f457b"></use><use xlink:href="#SvgjsG1550" transform="translate(240, 192) scale(1.5)" fill="rgba(68, 81, 227, 1)"></use><use xlink:href="#SvgjsG1549" transform="translate(240, 240) scale(1.5)" fill="rgba(68, 81, 227, 1)"></use><use xlink:href="#SvgjsG1550" transform="translate(240, 288) scale(1.5)" fill="rgba(68, 81, 227, 1)"></use><use xlink:href="#SvgjsG1550" transform="translate(240, 336) scale(1.5)" fill="#0f457b"></use><use xlink:href="#SvgjsG1549" transform="translate(240, 384) scale(1.5)" fill="rgba(134, 145, 239, 1)"></use><use xlink:href="#SvgjsG1550" transform="translate(240, 432) scale(1.5)" fill="#0f457b"></use><use xlink:href="#SvgjsG1548" transform="translate(288, 0) scale(1.5)" fill="#0f457b"></use><use xlink:href="#SvgjsG1551" transform="translate(288, 48) scale(1.5)" fill="#0f457b"></use><use xlink:href="#SvgjsG1549" transform="translate(288, 96) scale(1.5)" fill="rgba(68, 81, 227, 1)"></use><use xlink:href="#SvgjsG1548" transform="translate(288, 144) scale(1.5)" fill="rgba(68, 81, 227, 1)"></use><use xlink:href="#SvgjsG1550" transform="translate(288, 192) scale(1.5)" fill="rgba(68, 81, 227, 1)"></use><use xlink:href="#SvgjsG1550" transform="translate(288, 240) scale(1.5)" fill="rgba(68, 81, 227, 1)"></use><use xlink:href="#SvgjsG1550" transform="translate(288, 288) scale(1.5)" fill="rgba(68, 81, 227, 1)"></use><use xlink:href="#SvgjsG1549" transform="translate(288, 336) scale(1.5)" fill="rgba(68, 81, 227, 1)"></use><use xlink:href="#SvgjsG1550" transform="translate(288, 384) scale(1.5)" fill="#0f457b"></use><use xlink:href="#SvgjsG1550" transform="translate(288, 432) scale(1.5)" fill="#0f457b"></use><use xlink:href="#SvgjsG1550" transform="translate(336, 0) scale(1.5)" fill="rgba(134, 145, 239, 1)"></use><use xlink:href="#SvgjsG1548" transform="translate(336, 48) scale(1.5)" fill="rgba(68, 81, 227, 1)"></use><use xlink:href="#SvgjsG1548" transform="translate(336, 96) scale(1.5)" fill="#0f457b"></use><use xlink:href="#SvgjsG1549" transform="translate(336, 144) scale(1.5)" fill="rgba(134, 145, 239, 1)"></use><use xlink:href="#SvgjsG1551" transform="translate(336, 192) scale(1.5)" fill="rgba(134, 145, 239, 1)"></use><use xlink:href="#SvgjsG1548" transform="translate(336, 240) scale(1.5)" fill="rgba(68, 81, 227, 1)"></use><use xlink:href="#SvgjsG1551" transform="translate(336, 288) scale(1.5)" fill="#0f457b"></use><use xlink:href="#SvgjsG1550" transform="translate(336, 336) scale(1.5)" fill="#0f457b"></use><use xlink:href="#SvgjsG1551" transform="translate(336, 384) scale(1.5)" fill="rgba(68, 81, 227, 1)"></use><use xlink:href="#SvgjsG1551" transform="translate(336, 432) scale(1.5)" fill="rgba(68, 81, 227, 1)"></use><use xlink:href="#SvgjsG1551" transform="translate(384, 0) scale(1.5)" fill="rgba(134, 145, 239, 1)"></use><use xlink:href="#SvgjsG1548" transform="translate(384, 48) scale(1.5)" fill="#0f457b"></use><use xlink:href="#SvgjsG1549" transform="translate(384, 96) scale(1.5)" fill="rgba(68, 81, 227, 1)"></use><use xlink:href="#SvgjsG1550" transform="translate(384, 144) scale(1.5)" fill="#0f457b"></use><use xlink:href="#SvgjsG1550" transform="translate(384, 192) scale(1.5)" fill="rgba(68, 81, 227, 1)"></use><use xlink:href="#SvgjsG1550" transform="translate(384, 240) scale(1.5)" fill="#0f457b"></use><use xlink:href="#SvgjsG1551" transform="translate(384, 288) scale(1.5)" fill="#0f457b"></use><use xlink:href="#SvgjsG1551" transform="translate(384, 336) scale(1.5)" fill="rgba(68, 81, 227, 1)"></use><use xlink:href="#SvgjsG1548" transform="translate(384, 384) scale(1.5)" fill="#0f457b"></use><use xlink:href="#SvgjsG1551" transform="translate(384, 432) scale(1.5)" fill="rgba(134, 145, 239, 1)"></use><use xlink:href="#SvgjsG1551" transform="translate(432, 0) scale(1.5)" fill="rgba(68, 81, 227, 1)"></use><use xlink:href="#SvgjsG1550" transform="translate(432, 48) scale(1.5)" fill="rgba(68, 81, 227, 1)"></use><use xlink:href="#SvgjsG1550" transform="translate(432, 96) scale(1.5)" fill="#0f457b"></use><use xlink:href="#SvgjsG1548" transform="translate(432, 144) scale(1.5)" fill="rgba(68, 81, 227, 1)"></use><use xlink:href="#SvgjsG1551" transform="translate(432, 192) scale(1.5)" fill="#0f457b"></use><use xlink:href="#SvgjsG1548" transform="translate(432, 240) scale(1.5)" fill="rgba(68, 81, 227, 1)"></use><use xlink:href="#SvgjsG1550" transform="translate(432, 288) scale(1.5)" fill="rgba(68, 81, 227, 1)"></use><use xlink:href="#SvgjsG1550" transform="translate(432, 336) scale(1.5)" fill="rgba(134, 145, 239, 1)"></use><use xlink:href="#SvgjsG1548" transform="translate(432, 384) scale(1.5)" fill="#0f457b"></use><use xlink:href="#SvgjsG1548" transform="translate(432, 432) scale(1.5)" fill="rgba(68, 81, 227, 1)"></use></g></defs></svg>